<?xml version="1.0" ?>
<!-- Uploaded to: SVG Repo, www.svgrepo.com, Generator: SVG Repo Mixer Tools -->
<svg width="800px" height="800px" viewBox="0 0 64 64" xmlns="http://www.w3.org/2000/svg">
<defs>
<style>.cls-1{fill:#7c6749;}.cls-2{fill:#a58961;}.cls-3{fill:#b5a656;}.cls-4{fill:#f2dd72;}.cls-5{fill:gray;}.cls-6{fill:#999;}.cls-7{fill:#534741;}.cls-8{fill:#756c67;}.cls-9{fill:#736357;}.cls-10{fill:#8b8b8b;}.cls-11{fill:#bababa;}.cls-12{fill:none;stroke:#000000;stroke-linejoin:round;stroke-width:2px;}</style>
</defs>
<title/>
<g data-name="Layer 4" id="Layer_4">
<rect class="cls-1" height="22" width="16" x="44" y="40"/>
<rect class="cls-2" height="22" width="13" x="44" y="40"/>
<circle class="cls-3" cx="55" cy="10" r="7"/>
<ellipse class="cls-4" cx="53.5" cy="10" rx="5.5" ry="6.83"/>
<path class="cls-5" d="M57,13a4.93,4.93,0,0,0-1.09.13,5,5,0,0,0-9.34-1.4A5,5,0,0,0,44,11a4.94,4.94,0,0,0-2.71.81,6,6,0,0,0-8.58,0A4.94,4.94,0,0,0,30,11a5,5,0,0,0-2.57.73,5,5,0,0,0-9.34,1.4A4.93,4.93,0,0,0,17,13a5,5,0,0,0,0,10,5.08,5.08,0,0,0,2.06-.45,5,5,0,0,0,9.85.32,5,5,0,0,0,6.66,1.4,5,5,0,0,0,9.16-.71,5,5,0,0,0,9.18-1.66A4.93,4.93,0,0,0,57,23a5,5,0,0,0,0-10Z"/>
<path class="cls-6" d="M57,16a4.93,4.93,0,0,0-1.09.13,5,5,0,0,0-9.34-1.4A5,5,0,0,0,44,14a4.94,4.94,0,0,0-2.71.81,6,6,0,0,0-8.58,0A4.94,4.94,0,0,0,30,14a5,5,0,0,0-2.57.73,5,5,0,0,0-9.34,1.4A4.93,4.93,0,0,0,17,16a5,5,0,0,0-4.75,3.5A5,5,0,0,0,17,23a5.08,5.08,0,0,0,2.06-.45,5,5,0,0,0,9.85.32,5,5,0,0,0,6.66,1.4,5,5,0,0,0,9.16-.71,5,5,0,0,0,9.18-1.66A4.93,4.93,0,0,0,57,23a5,5,0,0,0,4.75-3.5A5,5,0,0,0,57,16Z"/>
<polygon class="cls-7" points="18 26 32 12 46 26 18 26"/>
<polygon class="cls-8" points="18 26 42 26 30 14 18 26"/>
<polygon class="cls-7" points="22 40 12 30 2 40 22 40"/>
<path class="cls-8" d="M2,40H18l-8-8Z"/>
<polygon class="cls-7" points="62 40 52 30 42 40 62 40"/>
<path class="cls-8" d="M42,40H58l-8-8Z"/>
<rect class="cls-7" height="36" width="24" x="20" y="26"/>
<rect class="cls-9" height="36" width="20" x="20" y="26"/>
<path class="cls-10" d="M28,44V34a4,4,0,0,1,4-4h0a4,4,0,0,1,4,4V44"/>
<path class="cls-11" d="M33,34a4,4,0,0,0-2.5-3.7A4,4,0,0,0,28,34V44h5V34Z"/>
<rect class="cls-1" height="22" width="16" x="4" y="40"/>
<rect class="cls-2" height="22" width="13" x="4" y="40"/>
<path class="cls-10" d="M32,50h0a6,6,0,0,1,6,6v6a0,0,0,0,1,0,0H26a0,0,0,0,1,0,0V56A6,6,0,0,1,32,50Z"/>
<path class="cls-11" d="M30.5,50.2A6,6,0,0,0,26,56v6h9V56A6,6,0,0,0,30.5,50.2Z"/>
<path class="cls-10" d="M56,62V57a4,4,0,0,0-4-4h0a4,4,0,0,0-4,4v5Z"/>
<path class="cls-11" d="M50.5,53.3A4,4,0,0,0,48,57v5h5V57A4,4,0,0,0,50.5,53.3Z"/>
<path class="cls-10" d="M16,62V57a4,4,0,0,0-4-4h0a4,4,0,0,0-4,4v5Z"/>
<path class="cls-11" d="M10.5,53.3A4,4,0,0,0,8,57v5h5V57A4,4,0,0,0,10.5,53.3Z"/>
<rect class="cls-11" height="5" width="4" x="48" y="44"/>
<rect class="cls-11" height="5" width="4" x="52" y="44"/>
<rect class="cls-11" height="5" width="4" x="8" y="44"/>
<rect class="cls-11" height="5" width="4" x="12" y="44"/>
<polygon class="cls-12" points="18 26 32 12 46 26 18 26"/>
<polyline class="cls-12" points="20 26 20 62 44 62 44 26"/>
<line class="cls-12" x1="20" x2="44" y1="44" y2="44"/>
<line class="cls-12" x1="20" x2="44" y1="38" y2="38"/>
<line class="cls-12" x1="24" x2="24" y1="38" y2="44"/>
<path class="cls-12" d="M28,44V34a4,4,0,0,1,4-4h0a4,4,0,0,1,4,4V44"/>
<line class="cls-12" x1="32" x2="32" y1="38" y2="44"/>
<line class="cls-12" x1="40" x2="40" y1="38" y2="44"/>
<path class="cls-12" d="M32,50h0a6,6,0,0,1,6,6v6a0,0,0,0,1,0,0H26a0,0,0,0,1,0,0V56A6,6,0,0,1,32,50Z"/>
<polyline class="cls-12" points="44 38 52 30 62 40 44 40"/>
<polyline class="cls-12" points="44 62 60 62 60 40"/>
<polyline class="cls-12" points="20 62 4 62 4 40"/>
<path class="cls-12" d="M48,62V57a4,4,0,0,1,4-4h0a4,4,0,0,1,4,4v5"/>
<rect class="cls-12" height="5" width="8" x="48" y="44"/>
<line class="cls-12" x1="52" x2="52" y1="44" y2="49"/>
<polyline class="cls-12" points="20 38 12 30 2 40 20 40"/>
<path class="cls-12" d="M16,62V57a4,4,0,0,0-4-4h0a4,4,0,0,0-4,4v5"/>
<rect class="cls-12" height="5" transform="translate(24 93) rotate(-180)" width="8" x="8" y="44"/>
<line class="cls-12" x1="12" x2="12" y1="44" y2="49"/>
<line class="cls-12" x1="32" x2="32" y1="12" y2="1"/>
<line class="cls-12" x1="27" x2="37" y1="5" y2="5"/>
<path class="cls-12" d="M29,11.11a5.1,5.1,0,0,0-1.57.62,5,5,0,0,0-9.34,1.4A4.93,4.93,0,0,0,17,13a5,5,0,0,0,0,10"/>
<path class="cls-12" d="M49,26a5,5,0,0,0,4.91-4.1A4.93,4.93,0,0,0,57,23a5,5,0,0,0,0-10,4.93,4.93,0,0,0-1.09.13,5,5,0,0,0-9.34-1.4A5,5,0,0,0,44,11a4.94,4.94,0,0,0-2.71.81A6,6,0,0,0,37,10a6,6,0,0,0-2,.34"/>
<path class="cls-12" d="M48,10a7,7,0,1,1,12,4.9"/>
</g>
</svg>