<?xml version="1.0" encoding="iso-8859-1"?>
<!-- Uploaded to: SVG Repo, www.svgrepo.com, Generator: SVG Repo Mixer Tools -->
<!DOCTYPE svg PUBLIC "-//W3C//DTD SVG 1.1//EN" "http://www.w3.org/Graphics/SVG/1.1/DTD/svg11.dtd">
<svg fill="#000000" version="1.1" id="Capa_1" xmlns="http://www.w3.org/2000/svg" xmlns:xlink="http://www.w3.org/1999/xlink" 
	 width="800px" height="800px" viewBox="0 0 127.749 127.749"
	 xml:space="preserve">
<g>
	<path d="M127.749,33.497c0-5.859-4.772-10.631-10.636-10.631c-5.864,0-10.632,4.767-10.632,10.631c0,3.834,2.057,7.172,5.104,9.039
		L91.251,62.765l-23.33-23.338V23.712h8.101c2.235,0,4.05-1.814,4.05-4.05c0-2.236-1.814-4.05-4.05-4.05h-8.101v-9.45
		c0-2.236-1.813-4.05-4.05-4.05c-2.235,0-4.05,1.813-4.05,4.05v9.45h-8.1c-2.236,0-4.05,1.813-4.05,4.05
		c0,2.236,1.814,4.05,4.05,4.05h8.1v15.715L36.455,62.791L15.823,42.214c3.23-1.827,5.442-5.255,5.442-9.223
		c0-5.862-4.768-10.634-10.631-10.634S0,27.124,0,32.991c0,4.119,2.381,7.663,5.822,9.426v79.097c0,2.235,1.814,4.05,4.05,4.05
		h27.285c0.24,0.053,0.482,0.073,0.73,0.073c0.005,0,0.005,0,0.01,0l79.98-0.073c2.235,0,4.05-1.814,4.05-4.05V42.921
		C125.371,41.159,127.749,37.618,127.749,33.497z M117.113,30.966c1.397,0,2.536,1.134,2.536,2.531s-1.129,2.531-2.536,2.531
		c-1.393,0-2.531-1.134-2.531-2.531S115.731,30.966,117.113,30.966z M88.399,71.342c1.571,1.582,4.14,1.582,5.722,0.011
		l19.706-19.615v58.786l-45.899-45.9V50.878L88.399,71.342z M67.927,76.077l41.396,41.396l-41.396,0.042V76.077z M39.334,71.384
		l20.498-20.506v13.745l-45.9,45.9V51.759L33.61,71.384C35.192,72.966,37.752,72.955,39.334,71.384z M10.644,30.457
		c1.393,0,2.531,1.134,2.531,2.534c0,1.397-1.134,2.531-2.531,2.531c-1.4,0-2.534-1.134-2.534-2.531
		C8.105,31.591,9.239,30.457,10.644,30.457z M37.958,117.463H18.441l41.392-41.386v41.438l-21.157,0.011
		C38.443,117.495,38.201,117.463,37.958,117.463z"/>
</g>
</svg>