<?xml version="1.0" encoding="iso-8859-1"?>
<!-- Uploaded to: SVG Repo, www.svgrepo.com, Generator: SVG Repo Mixer Tools -->
<svg fill="#000000" height="800px" width="800px" version="1.1" id="Layer_1" xmlns="http://www.w3.org/2000/svg" xmlns:xlink="http://www.w3.org/1999/xlink" 
	 viewBox="0 0 512.001 512.001" xml:space="preserve">
<g>
	<g>
		<path d="M351.946,180.779c-2.074-11.842-5.686-23.35-10.832-34.399c-1.341-2.879-4.228-4.72-7.405-4.72h-9.188l7.356-22.068
			c0.005-0.015,10.844-32.533,10.844-32.533c1.123-3.37-0.06-7.08-2.927-9.177L246.386,9.55
			c-17.515-12.735-44.952-12.736-62.483,0.014L90.514,77.882c-2.867,2.097-4.05,5.807-2.927,9.177l10.839,32.518
			c0.005,0.015,7.361,22.083,7.361,22.083H96.6c-3.176,0-6.064,1.841-7.405,4.72c-5.146,11.046-8.756,22.549-10.83,34.388
			c-19.702,2.9-34.875,19.911-34.875,40.405c0,19.764,14.111,36.291,32.787,40.044v8.972c0,76.578,62.3,138.877,138.877,138.877
			s138.877-62.3,138.877-138.877v-8.972c18.675-3.754,32.786-20.279,32.786-40.044C386.818,200.707,371.688,183.713,351.946,180.779
			z M76.277,204.835v39.478c-9.565-3.342-16.447-12.45-16.447-23.14c-0.001-10.754,6.966-19.907,16.621-23.198
			C76.34,200.252,76.277,202.537,76.277,204.835z M245.107,28.858l80.226,58.69l-7.145,21.435h-73.081V28.858z M201.538,117.152
			V18.646c8.521-3.011,18.717-3.012,27.231-0.003v98.509c0,4.513,3.658,8.169,8.169,8.169h75.804l-5.446,16.339H123.01
			l-5.446-16.339h75.804C197.88,125.322,201.538,121.665,201.538,117.152z M104.974,87.549l80.226-58.69v80.125h-73.081
			L104.974,87.549z M337.692,270.189c0,67.567-54.97,122.539-122.539,122.539S92.614,337.756,92.614,270.189v-65.354
			c0.001-16.251,3.13-31.981,9.311-46.836h17.904c-7.139,14.493-10.876,30.438-10.876,46.836c0,4.513,3.658,8.169,8.169,8.169
			s8.169-3.657,8.169-8.169c0-16.655,4.549-32.755,13.171-46.836h153.381c8.623,14.081,13.171,30.181,13.171,46.836v24.508H117.121
			c-4.512,0-8.169,3.657-8.169,8.169c0,4.513,3.658,8.169,8.169,8.169h196.062c4.512,0,8.169-3.657,8.169-8.169v-32.677
			c0-16.398-3.737-32.343-10.876-46.836h2.682c0.053,0,15.223,0,15.223,0c6.181,14.855,9.311,30.585,9.311,46.836V270.189z
			 M354.03,244.313v-39.478c0-2.296-0.063-4.582-0.173-6.86c9.655,3.293,16.621,12.445,16.621,23.198
			C370.478,231.863,363.595,240.971,354.03,244.313z"/>
	</g>
</g>
<g>
	<g>
		<path d="M413.406,302.256c-0.289-0.297-0.604-0.569-0.938-0.82c-9.091-7.918-20.956-12.729-33.929-12.729
			c-4.512,0-8.169,3.657-8.169,8.169s3.658,8.169,8.169,8.169c7.405,0,14.282,2.289,19.971,6.19
			c-16.554,73.937-77.061,131.589-152.036,144.221c-3.932,0.662-6.812,4.067-6.812,8.056v32.149h-49.016v-32.149
			c0-3.988-2.88-7.393-6.812-8.056c-74.975-12.632-135.482-70.284-152.036-144.22c5.689-3.902,12.566-6.19,19.971-6.19
			c4.512,0,8.169-3.657,8.169-8.169s-3.658-8.169-8.169-8.169c-12.974,0-24.838,4.811-33.929,12.729
			c-0.333,0.252-0.648,0.523-0.938,0.82C6.542,311.724,0.03,325.339,0.03,340.446v163.385c0,4.513,3.658,8.169,8.169,8.169h413.909
			c4.512,0,8.169-3.657,8.169-8.169V340.446C430.278,325.338,423.766,311.723,413.406,302.256z M174.308,495.661H114.4v-24.508
			c0-4.513-3.658-8.169-8.169-8.169s-8.169,3.657-8.169,8.169v24.508H16.369V340.445c0-4.736,0.941-9.253,2.636-13.386
			c21.012,72.23,81.112,128.099,155.303,143.241V495.661z M413.939,495.661L413.939,495.661h-81.693v-24.508
			c0-4.513-3.658-8.169-8.169-8.169s-8.169,3.657-8.169,8.169v24.508H256v-25.361c74.191-15.141,134.291-71.01,155.303-143.241
			c1.695,4.133,2.636,8.651,2.636,13.386V495.661z"/>
	</g>
</g>
<g>
	<g>
		<path d="M186.289,196.665h-18.517c-4.512,0-8.169,3.657-8.169,8.169s3.657,8.169,8.169,8.169h10.813
			c1.121,3.173,4.148,5.446,7.704,5.446c4.512,0,8.169-3.657,8.169-8.169v-5.446C194.459,200.322,190.801,196.665,186.289,196.665z"
			/>
	</g>
</g>
<g>
	<g>
		<path d="M262.536,196.665h-18.517c-4.512,0-8.169,3.657-8.169,8.169v5.446c0,4.513,3.657,8.169,8.169,8.169
			c3.557,0,6.583-2.273,7.704-5.446h10.813c4.512,0,8.169-3.657,8.169-8.169S267.047,196.665,262.536,196.665z"/>
	</g>
</g>
<g>
	<g>
		<path d="M235.863,262.492c-4.251-1.513-8.922,0.71-10.434,4.96c-1.542,4.337-5.671,7.251-10.275,7.251
			c-4.604,0-8.734-2.914-10.275-7.251c-1.512-4.25-6.182-6.473-10.434-4.96c-4.251,1.511-6.472,6.182-4.961,10.434
			c3.852,10.836,14.168,18.116,25.67,18.116c11.502,0,21.817-7.28,25.67-18.116C242.335,268.675,240.114,264.003,235.863,262.492z"
			/>
	</g>
</g>
<g>
	<g>
		<path d="M511.97,149.829c0-31.531-25.653-57.185-57.185-57.185c-31.532,0-57.185,25.654-57.185,57.185
			c0,22.523,18.323,40.846,40.846,40.846c13.514,0,24.508-10.995,24.508-24.508v-8.169h32.083
			c-3.24,22.582-19.716,41.405-42.291,47.215c-2.194,0.565-4.055,2.016-5.138,4.006c-0.661,1.213-0.997,2.563-0.994,3.917
			c0.001,1.169,0.001,287.8,0.001,290.695c0,4.513,3.658,8.169,8.169,8.169s8.169-3.657,8.169-8.169V225.618
			c0-2.607,0-4.721-0.003-6.445C492.11,208.901,511.97,181.242,511.97,149.829z M446.616,166.168c0,4.505-3.664,8.169-8.169,8.169
			c-10.649,0-19.73-6.831-23.103-16.339h31.272V166.168z M446.616,141.66h-31.847c3.259-15.979,15.867-28.599,31.847-31.857V141.66z
			 M462.955,141.66v-31.857c15.979,3.258,28.588,15.878,31.846,31.857H462.955z"/>
	</g>
</g>
</svg>